# xmcd CD database file generated by Grip 2.91
# 
# Track frame offsets:
#       182
#       20182
#       37865
#       54685
#       68707
#       81407
#       97085
#       111870
#       130362
#       144187
#       162485
# 
# Disc length: 2395 seconds
# 
# Revision: 3
# Processed by: cddbd v1.4b41PL1 Copyright (c) Steve Scherf et al.
# Submitted via: Grip 2.91
# 
DISCID=9b09590b
DTITLE=Suzy Bogguss - Nobody Love Nobody Gets Hurt
DYEAR=1900
DGENRE=
TTITLE0=Just Enough Rope
TTITLE1=When I Run
TTITLE2=I wish Hearts Would Break
TTITLE3=Nobody Love, Nobody Gets Hurt
TTITLE4=Family tree
TTITLE5=Somebody I Love
TTITLE6=Moonlight And Roses
TTITLE7=Take Me Back
TTITLE8=From Where I Stand
TTITLE9=I Surrender
TTITLE10=Train Of Thought
EXTD=
EXTT0=
EXTT1=
EXTT2=
EXTT3=
EXTT4=
EXTT5=
EXTT6=
EXTT7=
EXTT8=
EXTT9=
EXTT10=
PLAYORDER=
